<?xml version="1.0"?>
<svg xmlns="http://www.w3.org/2000/svg" xmlns:xlink="http://www.w3.org/1999/xlink" xmlns:svgjs="http://svgjs.com/svgjs" version="1.1" width="512" height="512" x="0" y="0" viewBox="0 0 512 512" style="enable-background:new 0 0 512 512" xml:space="preserve"><g><g xmlns="http://www.w3.org/2000/svg"><path d="m442.899 139.292 28.74-8.584c-16.069-53.789-51.518-99.434-99.814-128.555l-15.498 25.693c41.909 25.255 72.642 64.835 86.572 111.446z" fill="#ffffff" data-original="#000000" style=""/><path d="m155.673 27.847-15.498-25.694c-48.296 29.121-83.745 74.766-99.815 128.555l28.74 8.584c13.931-46.611 44.664-86.191 86.573-111.445z" fill="#ffffff" data-original="#000000" style=""/><path d="m91 195v160.789c0 9.668-3.765 18.765-10.605 25.605-12.51 12.51-19.395 29.136-19.395 46.817v23.789h390v-23.789c0-17.681-6.885-34.307-19.395-46.816-6.84-6.841-10.605-15.938-10.605-25.606v-160.789c0-85.919-66.031-156.627-150-164.24v-30.76h-30v30.76c-83.969 7.613-150 78.321-150 164.24z" fill="#ffffff" data-original="#000000" style=""/><path d="m256 512c24.404 0 45.912-11.896 59.617-30h-119.234c13.705 18.104 35.213 30 59.617 30z" fill="#ffffff" data-original="#000000" style=""/></g></g></svg>
